<?xml version="1.0" encoding="UTF-8" standalone="no"?>
<!DOCTYPE svg PUBLIC "-//W3C//DTD SVG 1.1//EN" "http://www.w3.org/Graphics/SVG/1.1/DTD/svg11.dtd">
<svg width="100%" height="100%" viewBox="0 0 100 100" version="1.1" xmlns="http://www.w3.org/2000/svg" xmlns:xlink="http://www.w3.org/1999/xlink" xml:space="preserve" xmlns:serif="http://www.serif.com/" style="fill-rule:evenodd;clip-rule:evenodd;stroke-linejoin:round;stroke-miterlimit:2;">
    <g transform="matrix(1.84527,0,0,1.84527,-12.8962,-20.5643)">
        <path d="M60.98,24.825C60.98,17.393 54.946,11.359 47.514,11.359L20.582,11.359C13.15,11.359 7.116,17.393 7.116,24.825L7.116,51.756C7.116,59.188 13.15,65.222 20.582,65.222L47.514,65.222C54.946,65.222 60.98,59.188 60.98,51.756L60.98,24.825Z" style="fill:url(#_Linear1);"/>
    </g>
    <g transform="matrix(0.76119,0,0,0.73463,37.4085,87.5879)">
        <path d="M54.426,-83.144C56.433,-83.144 58.498,-81.871 60.621,-79.323C62.744,-76.775 63.806,-74.672 63.806,-73.012C63.806,-71.352 63.516,-70.522 62.937,-70.522C62.358,-70.522 61.258,-70.812 59.637,-71.391C58.016,-71.97 56.549,-72.259 55.237,-72.259C52.226,-72.259 48.578,-70.715 44.294,-67.627C40.009,-64.539 35.956,-60.718 32.135,-56.163C28.313,-51.608 25.051,-46.417 22.349,-40.588C19.647,-34.759 18.296,-29.722 18.296,-25.476C18.296,-21.23 19.396,-18.123 21.597,-16.154C23.797,-14.186 26.673,-13.201 30.224,-13.201C33.775,-13.201 37.442,-13.722 41.225,-14.765C45.008,-15.807 48.096,-16.984 50.489,-18.296C56.665,-21.616 60.062,-23.276 60.679,-23.276C61.992,-23.276 62.648,-22.407 62.648,-20.67C62.648,-18.933 60.872,-16.617 57.321,-13.722C53.77,-10.827 49.369,-8.222 44.12,-5.906C38.87,-3.59 34.161,-2.432 29.992,-2.432C24.588,-2.432 19.493,-4.767 14.707,-9.438C9.92,-14.108 7.527,-19.261 7.527,-24.897C7.527,-32.154 9.901,-40.356 14.649,-49.505C19.396,-58.653 25.495,-66.546 32.945,-73.186C40.395,-79.825 47.555,-83.144 54.426,-83.144Z" style="fill:white;fill-rule:nonzero;"/>
    </g>
    <g transform="matrix(3.67275,0,0,3.54461,5.67826,74.8875)">
        <path d="M11.28,-17.232C11.696,-17.232 12.124,-16.968 12.564,-16.44C13.004,-15.912 13.224,-15.476 13.224,-15.132C13.224,-14.788 13.164,-14.616 13.044,-14.616C12.924,-14.616 12.696,-14.676 12.36,-14.796C12.024,-14.916 11.72,-14.976 11.448,-14.976C10.824,-14.976 10.068,-14.656 9.18,-14.016C8.292,-13.376 7.452,-12.584 6.66,-11.64C5.868,-10.696 5.192,-9.62 4.632,-8.412C4.072,-7.204 3.792,-6.16 3.792,-5.28C3.792,-4.4 4.02,-3.756 4.476,-3.348C4.932,-2.94 5.528,-2.736 6.264,-2.736C7,-2.736 7.76,-2.844 8.544,-3.06C9.328,-3.276 9.968,-3.52 10.464,-3.792C11.744,-4.48 12.448,-4.824 12.576,-4.824C12.848,-4.824 12.984,-4.644 12.984,-4.284C12.984,-3.924 12.616,-3.444 11.88,-2.844C11.144,-2.244 10.232,-1.704 9.144,-1.224C8.056,-0.744 7.08,-0.504 6.216,-0.504C5.096,-0.504 4.04,-0.988 3.048,-1.956C2.056,-2.924 1.56,-3.992 1.56,-5.16C1.56,-6.664 2.052,-8.364 3.036,-10.26C4.02,-12.156 5.284,-13.792 6.828,-15.168C8.372,-16.544 9.856,-17.232 11.28,-17.232Z" style="fill:white;fill-rule:nonzero;"/>
    </g>
    <defs>
        <linearGradient id="_Linear1" x1="0" y1="0" x2="1" y2="0" gradientUnits="userSpaceOnUse" gradientTransform="matrix(53.8634,0,0,53.8634,7.1163,11.3589)"><stop offset="0" style="stop-color:rgb(111,34,50);stop-opacity:1"/><stop offset="0.5" style="stop-color:rgb(151,7,65);stop-opacity:1"/><stop offset="1" style="stop-color:rgb(195,7,63);stop-opacity:1"/></linearGradient>
    </defs>
</svg>
